<mxfile host="app.diagrams.net" modified="2023-10-14T15:36:22.340Z" agent="Mozilla/5.0 (Macintosh; Intel Mac OS X 10_15_7) AppleWebKit/605.1.15 (KHTML, like Gecko) Version/17.0 Safari/605.1.15" etag="ReU4gjZs2mPJkCFxI0V4" version="22.0.4" type="github" pages="3">
  <diagram name="第 1 页" id="IOFBIGlpEkWvhjMVzclq">
    <mxGraphModel dx="838" dy="1245" grid="0" gridSize="10" guides="1" tooltips="1" connect="1" arrows="1" fold="1" page="0" pageScale="1" pageWidth="1169" pageHeight="1654" background="#D4E1F5" math="0" shadow="0">
      <root>
        <mxCell id="0" />
        <mxCell id="1" parent="0" />
        <mxCell id="lve1HU6sVbhPU620Vps4-4" value="" style="edgeStyle=orthogonalEdgeStyle;rounded=1;orthogonalLoop=1;jettySize=auto;html=1;spacingLeft=4;spacingBottom=4;spacingTop=4;spacingRight=4;" parent="1" source="lve1HU6sVbhPU620Vps4-2" target="lve1HU6sVbhPU620Vps4-3" edge="1">
          <mxGeometry relative="1" as="geometry" />
        </mxCell>
        <mxCell id="lve1HU6sVbhPU620Vps4-5" value="" style="edgeStyle=orthogonalEdgeStyle;rounded=1;orthogonalLoop=1;jettySize=auto;html=1;spacingLeft=4;spacingBottom=4;spacingTop=4;spacingRight=4;" parent="1" source="lve1HU6sVbhPU620Vps4-2" target="lve1HU6sVbhPU620Vps4-3" edge="1">
          <mxGeometry relative="1" as="geometry" />
        </mxCell>
        <mxCell id="lve1HU6sVbhPU620Vps4-2" value="企业版AI内容系统" style="html=1;whiteSpace=wrap;rounded=1;glass=0;shadow=1;strokeColor=#999999;spacingLeft=4;spacingBottom=4;spacingTop=4;spacingRight=4;" parent="1" vertex="1">
          <mxGeometry x="99" y="40" width="110" height="50" as="geometry" />
        </mxCell>
        <mxCell id="lve1HU6sVbhPU620Vps4-24" value="" style="edgeStyle=orthogonalEdgeStyle;rounded=1;orthogonalLoop=1;jettySize=auto;html=1;fontFamily=Helvetica;fontSize=12;fontColor=default;entryX=0;entryY=0.5;entryDx=0;entryDy=0;spacingLeft=4;spacingBottom=4;spacingTop=4;spacingRight=4;" parent="1" source="lve1HU6sVbhPU620Vps4-3" target="lve1HU6sVbhPU620Vps4-10" edge="1">
          <mxGeometry relative="1" as="geometry" />
        </mxCell>
        <mxCell id="lve1HU6sVbhPU620Vps4-27" style="edgeStyle=orthogonalEdgeStyle;rounded=1;orthogonalLoop=1;jettySize=auto;html=1;fontFamily=Helvetica;fontSize=12;fontColor=default;spacingLeft=4;spacingBottom=4;spacingTop=4;spacingRight=4;" parent="1" source="lve1HU6sVbhPU620Vps4-3" target="lve1HU6sVbhPU620Vps4-25" edge="1">
          <mxGeometry relative="1" as="geometry" />
        </mxCell>
        <mxCell id="lve1HU6sVbhPU620Vps4-52" style="edgeStyle=orthogonalEdgeStyle;rounded=1;orthogonalLoop=1;jettySize=auto;html=1;entryX=0;entryY=0.5;entryDx=0;entryDy=0;fontFamily=Helvetica;fontSize=12;fontColor=default;" parent="1" source="lve1HU6sVbhPU620Vps4-3" target="lve1HU6sVbhPU620Vps4-45" edge="1">
          <mxGeometry relative="1" as="geometry" />
        </mxCell>
        <mxCell id="lve1HU6sVbhPU620Vps4-57" style="edgeStyle=orthogonalEdgeStyle;rounded=1;orthogonalLoop=1;jettySize=auto;html=1;entryX=0;entryY=0.5;entryDx=0;entryDy=0;fontFamily=Helvetica;fontSize=12;fontColor=default;" parent="1" source="lve1HU6sVbhPU620Vps4-3" target="lve1HU6sVbhPU620Vps4-44" edge="1">
          <mxGeometry relative="1" as="geometry" />
        </mxCell>
        <mxCell id="lve1HU6sVbhPU620Vps4-68" style="edgeStyle=orthogonalEdgeStyle;rounded=1;orthogonalLoop=1;jettySize=auto;html=1;entryX=0;entryY=0.5;entryDx=0;entryDy=0;fontFamily=Helvetica;fontSize=12;fontColor=default;" parent="1" source="lve1HU6sVbhPU620Vps4-3" target="lve1HU6sVbhPU620Vps4-67" edge="1">
          <mxGeometry relative="1" as="geometry" />
        </mxCell>
        <mxCell id="lve1HU6sVbhPU620Vps4-70" style="edgeStyle=orthogonalEdgeStyle;rounded=1;orthogonalLoop=1;jettySize=auto;html=1;entryX=0;entryY=0.75;entryDx=0;entryDy=0;fontFamily=Helvetica;fontSize=12;fontColor=default;" parent="1" source="lve1HU6sVbhPU620Vps4-3" target="lve1HU6sVbhPU620Vps4-69" edge="1">
          <mxGeometry relative="1" as="geometry" />
        </mxCell>
        <mxCell id="lve1HU6sVbhPU620Vps4-3" value="应用前端" style="whiteSpace=wrap;html=1;rounded=1;spacingLeft=4;spacingBottom=4;spacingTop=4;spacingRight=4;" parent="1" vertex="1">
          <mxGeometry x="315" y="50" width="70" height="30" as="geometry" />
        </mxCell>
        <mxCell id="lve1HU6sVbhPU620Vps4-14" value="" style="edgeStyle=orthogonalEdgeStyle;rounded=1;orthogonalLoop=1;jettySize=auto;html=1;fontFamily=Helvetica;fontSize=12;fontColor=default;spacingLeft=4;spacingBottom=4;spacingTop=4;spacingRight=4;" parent="1" source="lve1HU6sVbhPU620Vps4-10" target="lve1HU6sVbhPU620Vps4-13" edge="1">
          <mxGeometry relative="1" as="geometry" />
        </mxCell>
        <mxCell id="lve1HU6sVbhPU620Vps4-10" value="用户注册" style="whiteSpace=wrap;html=1;rounded=1;spacingLeft=4;spacingBottom=4;spacingTop=4;spacingRight=4;" parent="1" vertex="1">
          <mxGeometry x="435" y="6" width="66" height="26" as="geometry" />
        </mxCell>
        <mxCell id="lve1HU6sVbhPU620Vps4-16" value="" style="edgeStyle=orthogonalEdgeStyle;rounded=1;orthogonalLoop=1;jettySize=auto;html=1;fontFamily=Helvetica;fontSize=12;fontColor=default;spacingLeft=4;spacingBottom=4;spacingTop=4;spacingRight=4;" parent="1" source="lve1HU6sVbhPU620Vps4-13" target="lve1HU6sVbhPU620Vps4-15" edge="1">
          <mxGeometry relative="1" as="geometry" />
        </mxCell>
        <mxCell id="lve1HU6sVbhPU620Vps4-13" value="手机号/email 注册" style="whiteSpace=wrap;html=1;rounded=1;spacingLeft=4;spacingBottom=4;spacingTop=4;spacingRight=4;" parent="1" vertex="1">
          <mxGeometry x="633" y="47" width="113" height="26" as="geometry" />
        </mxCell>
        <mxCell id="lve1HU6sVbhPU620Vps4-15" value="id&lt;br&gt;nickName&lt;br&gt;Phone&lt;br&gt;Email&lt;br&gt;avatar" style="whiteSpace=wrap;html=1;rounded=1;fillColor=#dae8fc;strokeColor=#6c8ebf;align=left;spacingLeft=4;spacingBottom=4;spacingTop=4;spacingRight=4;" parent="1" vertex="1">
          <mxGeometry x="787" y="-53" width="71" height="82" as="geometry" />
        </mxCell>
        <mxCell id="lve1HU6sVbhPU620Vps4-30" style="edgeStyle=orthogonalEdgeStyle;rounded=1;orthogonalLoop=1;jettySize=auto;html=1;exitX=1;exitY=0.5;exitDx=0;exitDy=0;fontFamily=Helvetica;fontSize=12;fontColor=default;spacingLeft=4;spacingBottom=4;spacingTop=4;spacingRight=4;" parent="1" source="lve1HU6sVbhPU620Vps4-25" target="lve1HU6sVbhPU620Vps4-29" edge="1">
          <mxGeometry relative="1" as="geometry" />
        </mxCell>
        <mxCell id="lve1HU6sVbhPU620Vps4-31" style="edgeStyle=orthogonalEdgeStyle;rounded=1;orthogonalLoop=1;jettySize=auto;html=1;entryX=0;entryY=0.5;entryDx=0;entryDy=0;fontFamily=Helvetica;fontSize=12;fontColor=default;spacingLeft=4;spacingBottom=4;spacingTop=4;spacingRight=4;" parent="1" source="lve1HU6sVbhPU620Vps4-25" target="lve1HU6sVbhPU620Vps4-28" edge="1">
          <mxGeometry relative="1" as="geometry" />
        </mxCell>
        <mxCell id="lve1HU6sVbhPU620Vps4-66" style="edgeStyle=orthogonalEdgeStyle;rounded=1;orthogonalLoop=1;jettySize=auto;html=1;entryX=0;entryY=0.5;entryDx=0;entryDy=0;fontFamily=Helvetica;fontSize=12;fontColor=default;" parent="1" source="lve1HU6sVbhPU620Vps4-25" target="lve1HU6sVbhPU620Vps4-60" edge="1">
          <mxGeometry relative="1" as="geometry" />
        </mxCell>
        <mxCell id="lve1HU6sVbhPU620Vps4-25" value="用户" style="whiteSpace=wrap;html=1;rounded=1;spacingLeft=4;spacingBottom=4;spacingTop=4;spacingRight=4;" parent="1" vertex="1">
          <mxGeometry x="442" y="119" width="121" height="26" as="geometry" />
        </mxCell>
        <mxCell id="lve1HU6sVbhPU620Vps4-28" value="用户非组织者 @子帐号&lt;br&gt;&lt;br&gt;用户所属组织&lt;br&gt;基础服务时间/到期时间&lt;br&gt;该组织已订阅AI服务类型&lt;br&gt;AI服务及套餐类型&lt;br&gt;用户使用历史记录" style="whiteSpace=wrap;html=1;rounded=1;align=right;spacingLeft=4;spacingBottom=4;spacingTop=4;spacingRight=4;" parent="1" vertex="1">
          <mxGeometry x="631" y="186" width="153" height="114" as="geometry" />
        </mxCell>
        <mxCell id="lve1HU6sVbhPU620Vps4-39" value="" style="edgeStyle=orthogonalEdgeStyle;rounded=1;orthogonalLoop=1;jettySize=auto;html=1;fontFamily=Helvetica;fontSize=12;fontColor=default;" parent="1" source="lve1HU6sVbhPU620Vps4-29" target="lve1HU6sVbhPU620Vps4-38" edge="1">
          <mxGeometry relative="1" as="geometry" />
        </mxCell>
        <mxCell id="lve1HU6sVbhPU620Vps4-40" style="edgeStyle=orthogonalEdgeStyle;rounded=1;orthogonalLoop=1;jettySize=auto;html=1;entryX=0;entryY=0.5;entryDx=0;entryDy=0;fontFamily=Helvetica;fontSize=12;fontColor=default;" parent="1" source="lve1HU6sVbhPU620Vps4-29" target="lve1HU6sVbhPU620Vps4-33" edge="1">
          <mxGeometry relative="1" as="geometry" />
        </mxCell>
        <mxCell id="lve1HU6sVbhPU620Vps4-63" style="edgeStyle=orthogonalEdgeStyle;rounded=1;orthogonalLoop=1;jettySize=auto;html=1;entryX=0;entryY=0.5;entryDx=0;entryDy=0;fontFamily=Helvetica;fontSize=12;fontColor=default;" parent="1" source="lve1HU6sVbhPU620Vps4-29" target="lve1HU6sVbhPU620Vps4-41" edge="1">
          <mxGeometry relative="1" as="geometry" />
        </mxCell>
        <mxCell id="lve1HU6sVbhPU620Vps4-64" style="edgeStyle=orthogonalEdgeStyle;rounded=1;orthogonalLoop=1;jettySize=auto;html=1;entryX=0;entryY=0.5;entryDx=0;entryDy=0;fontFamily=Helvetica;fontSize=12;fontColor=default;" parent="1" source="lve1HU6sVbhPU620Vps4-29" target="lve1HU6sVbhPU620Vps4-43" edge="1">
          <mxGeometry relative="1" as="geometry" />
        </mxCell>
        <mxCell id="lve1HU6sVbhPU620Vps4-65" style="edgeStyle=orthogonalEdgeStyle;rounded=1;orthogonalLoop=1;jettySize=auto;html=1;entryX=0;entryY=0.5;entryDx=0;entryDy=0;fontFamily=Helvetica;fontSize=12;fontColor=default;" parent="1" source="lve1HU6sVbhPU620Vps4-29" target="lve1HU6sVbhPU620Vps4-42" edge="1">
          <mxGeometry relative="1" as="geometry" />
        </mxCell>
        <mxCell id="lve1HU6sVbhPU620Vps4-29" value="企业身份验证 @组织者&lt;br&gt;&lt;br&gt;用户企业身份验证 / 可选&lt;br&gt;提交营业执照等企业信息 / 可选&lt;br&gt;是否已签订合同 / 可选" style="whiteSpace=wrap;rounded=1;align=right;html=1;spacingLeft=4;spacingBottom=4;spacingTop=4;spacingRight=4;fillColor=#cdeb8b;strokeColor=#36393d;" parent="1" vertex="1">
          <mxGeometry x="627" y="89" width="188" height="86" as="geometry" />
        </mxCell>
        <mxCell id="lve1HU6sVbhPU620Vps4-33" value="子帐号管理@组织者&lt;br&gt;&lt;br&gt;新增子账户/邀请码&lt;br&gt;禁用子账户&lt;br&gt;删除子账户" style="whiteSpace=wrap;html=1;rounded=1;align=right;spacingLeft=4;spacingBottom=4;spacingTop=4;spacingRight=4;fillColor=#cdeb8b;strokeColor=#36393d;" parent="1" vertex="1">
          <mxGeometry x="1078" y="199" width="121" height="86" as="geometry" />
        </mxCell>
        <mxCell id="lve1HU6sVbhPU620Vps4-38" value="专属企业入口@组织者&lt;br&gt;&lt;br&gt;获得 用户企业专属入口&lt;br&gt;Title 为企业名称&lt;br&gt;页面样式可定制&lt;br&gt;仅供该企业子帐号登录" style="whiteSpace=wrap;rounded=1;align=right;html=1;spacingLeft=4;spacingBottom=4;spacingTop=4;spacingRight=4;fillColor=#cdeb8b;strokeColor=#36393d;" parent="1" vertex="1">
          <mxGeometry x="1078" y="80" width="145" height="100" as="geometry" />
        </mxCell>
        <mxCell id="lve1HU6sVbhPU620Vps4-41" value="商店/订阅AI服务@组织者&lt;br&gt;&lt;br&gt;订阅指定AI服务/订阅时长" style="whiteSpace=wrap;html=1;rounded=1;align=right;spacingLeft=4;spacingBottom=4;spacingTop=4;spacingRight=4;fillColor=#cdeb8b;strokeColor=#36393d;" parent="1" vertex="1">
          <mxGeometry x="1078" y="294" width="157" height="58" as="geometry" />
        </mxCell>
        <mxCell id="lve1HU6sVbhPU620Vps4-42" value="AI服务数据统计@组织者&lt;br&gt;&lt;br&gt;查看子账户使用服务数据&lt;br&gt;子帐号用量报表&lt;br&gt;总用量报表" style="whiteSpace=wrap;html=1;rounded=1;align=right;spacingLeft=4;spacingBottom=4;spacingTop=4;spacingRight=4;fillColor=#cdeb8b;strokeColor=#36393d;" parent="1" vertex="1">
          <mxGeometry x="1078" y="464" width="154" height="86" as="geometry" />
        </mxCell>
        <mxCell id="lve1HU6sVbhPU620Vps4-43" value="用户账户钱包@组织者&lt;br&gt;&lt;br&gt;预存费用&lt;br&gt;充值记录&lt;br&gt;是否余额不足" style="whiteSpace=wrap;html=1;rounded=1;align=right;spacingLeft=4;spacingBottom=4;spacingTop=4;spacingRight=4;fillColor=#cdeb8b;strokeColor=#36393d;" parent="1" vertex="1">
          <mxGeometry x="1078" y="365" width="142" height="86" as="geometry" />
        </mxCell>
        <mxCell id="lve1HU6sVbhPU620Vps4-54" value="" style="edgeStyle=orthogonalEdgeStyle;rounded=1;orthogonalLoop=1;jettySize=auto;html=1;fontFamily=Helvetica;fontSize=12;fontColor=default;" parent="1" source="lve1HU6sVbhPU620Vps4-44" target="lve1HU6sVbhPU620Vps4-53" edge="1">
          <mxGeometry relative="1" as="geometry" />
        </mxCell>
        <mxCell id="lve1HU6sVbhPU620Vps4-44" value="可调用AI服务" style="whiteSpace=wrap;html=1;rounded=1;spacingLeft=4;spacingBottom=4;spacingTop=4;spacingRight=4;" parent="1" vertex="1">
          <mxGeometry x="431" y="746" width="121" height="26" as="geometry" />
        </mxCell>
        <mxCell id="lve1HU6sVbhPU620Vps4-50" style="edgeStyle=orthogonalEdgeStyle;rounded=1;orthogonalLoop=1;jettySize=auto;html=1;fontFamily=Helvetica;fontSize=12;fontColor=default;" parent="1" source="lve1HU6sVbhPU620Vps4-45" target="lve1HU6sVbhPU620Vps4-47" edge="1">
          <mxGeometry relative="1" as="geometry" />
        </mxCell>
        <mxCell id="lve1HU6sVbhPU620Vps4-51" style="edgeStyle=orthogonalEdgeStyle;rounded=1;orthogonalLoop=1;jettySize=auto;html=1;entryX=0.009;entryY=0.639;entryDx=0;entryDy=0;entryPerimeter=0;fontFamily=Helvetica;fontSize=12;fontColor=default;" parent="1" source="lve1HU6sVbhPU620Vps4-45" target="lve1HU6sVbhPU620Vps4-48" edge="1">
          <mxGeometry relative="1" as="geometry" />
        </mxCell>
        <mxCell id="lve1HU6sVbhPU620Vps4-62" style="edgeStyle=orthogonalEdgeStyle;rounded=1;orthogonalLoop=1;jettySize=auto;html=1;entryX=0;entryY=0.5;entryDx=0;entryDy=0;fontFamily=Helvetica;fontSize=12;fontColor=default;" parent="1" source="lve1HU6sVbhPU620Vps4-45" target="lve1HU6sVbhPU620Vps4-49" edge="1">
          <mxGeometry relative="1" as="geometry" />
        </mxCell>
        <mxCell id="lve1HU6sVbhPU620Vps4-45" value="产品套餐" style="whiteSpace=wrap;html=1;rounded=1;spacingLeft=4;spacingBottom=4;spacingTop=4;spacingRight=4;" parent="1" vertex="1">
          <mxGeometry x="486" y="538" width="121" height="26" as="geometry" />
        </mxCell>
        <mxCell id="lve1HU6sVbhPU620Vps4-47" value="基础费用(座席费) /年&lt;br&gt;1. Basic 5人以下&lt;br&gt;2. Pro 5-20人&lt;br&gt;3. 20人以上" style="whiteSpace=wrap;html=1;rounded=1;spacingLeft=4;spacingBottom=4;spacingTop=4;spacingRight=4;align=left;" parent="1" vertex="1">
          <mxGeometry x="651" y="515" width="133" height="72" as="geometry" />
        </mxCell>
        <mxCell id="lve1HU6sVbhPU620Vps4-48" value="AI服务订阅套餐 / 年&lt;br&gt;费用/预存费用" style="whiteSpace=wrap;html=1;rounded=1;spacingLeft=4;spacingBottom=4;spacingTop=4;spacingRight=4;align=left;" parent="1" vertex="1">
          <mxGeometry x="631" y="608" width="127" height="44" as="geometry" />
        </mxCell>
        <mxCell id="lve1HU6sVbhPU620Vps4-49" value="试用期" style="whiteSpace=wrap;html=1;rounded=1;spacingLeft=4;spacingBottom=4;spacingTop=4;spacingRight=4;align=left;" parent="1" vertex="1">
          <mxGeometry x="651" y="478" width="58" height="30" as="geometry" />
        </mxCell>
        <mxCell id="lve1HU6sVbhPU620Vps4-56" value="" style="edgeStyle=orthogonalEdgeStyle;rounded=1;orthogonalLoop=1;jettySize=auto;html=1;fontFamily=Helvetica;fontSize=12;fontColor=default;exitX=1;exitY=0.5;exitDx=0;exitDy=0;" parent="1" source="lve1HU6sVbhPU620Vps4-44" target="lve1HU6sVbhPU620Vps4-55" edge="1">
          <mxGeometry relative="1" as="geometry" />
        </mxCell>
        <mxCell id="lve1HU6sVbhPU620Vps4-53" value="AI供应商&lt;br&gt;&lt;br&gt;类型: 文生文/文生图/文生视频&lt;br&gt;供应商: openAI / midjourney ...&lt;br&gt;配置Settings: ...." style="whiteSpace=wrap;html=1;rounded=1;spacingLeft=4;spacingBottom=4;spacingTop=4;spacingRight=4;align=left;" parent="1" vertex="1">
          <mxGeometry x="819" y="707" width="221" height="104" as="geometry" />
        </mxCell>
        <mxCell id="lve1HU6sVbhPU620Vps4-55" value="AI前置过滤器&lt;br&gt;&lt;br&gt;敏感词&lt;br&gt;帐号池&lt;br&gt;自动翻译&lt;br&gt;数据调用?" style="whiteSpace=wrap;html=1;rounded=1;spacingLeft=4;spacingBottom=4;spacingTop=4;spacingRight=4;align=left;" parent="1" vertex="1">
          <mxGeometry x="656" y="791" width="93" height="100" as="geometry" />
        </mxCell>
        <mxCell id="lve1HU6sVbhPU620Vps4-60" value="用户应用基础数据:&lt;br&gt;&lt;br&gt;文本对话&lt;br&gt;图片/多媒体资产&lt;br&gt;..." style="whiteSpace=wrap;html=1;rounded=1;spacingLeft=4;spacingBottom=4;spacingTop=4;spacingRight=4;align=left;" parent="1" vertex="1">
          <mxGeometry x="639" y="309" width="121" height="86" as="geometry" />
        </mxCell>
        <mxCell id="lve1HU6sVbhPU620Vps4-67" value="支付 /微信..." style="whiteSpace=wrap;html=1;rounded=1;spacingLeft=4;spacingBottom=4;spacingTop=4;spacingRight=4;" parent="1" vertex="1">
          <mxGeometry x="431" y="868" width="121" height="26" as="geometry" />
        </mxCell>
        <mxCell id="lve1HU6sVbhPU620Vps4-69" value="订单管理" style="whiteSpace=wrap;html=1;rounded=1;spacingLeft=4;spacingBottom=4;spacingTop=4;spacingRight=4;" parent="1" vertex="1">
          <mxGeometry x="431" y="949" width="121" height="26" as="geometry" />
        </mxCell>
      </root>
    </mxGraphModel>
  </diagram>
  <diagram id="5L8wI-FdS9rlYB0B0ajt" name="userflow">
    <mxGraphModel dx="838" dy="845" grid="1" gridSize="10" guides="1" tooltips="1" connect="1" arrows="1" fold="1" page="0" pageScale="1" pageWidth="1169" pageHeight="1654" math="0" shadow="0">
      <root>
        <mxCell id="0" />
        <mxCell id="1" parent="0" />
        <mxCell id="-BCDw-kD6YFoPXBWKz_H-4" style="edgeStyle=orthogonalEdgeStyle;rounded=0;orthogonalLoop=1;jettySize=auto;html=1;labelBackgroundColor=none;strokeColor=#E07A5F;fontColor=default;" parent="1" source="-BCDw-kD6YFoPXBWKz_H-1" target="-BCDw-kD6YFoPXBWKz_H-3" edge="1">
          <mxGeometry relative="1" as="geometry" />
        </mxCell>
        <mxCell id="x_fUMEMZIowkx61nRzpR-35" style="edgeStyle=orthogonalEdgeStyle;rounded=0;orthogonalLoop=1;jettySize=auto;html=1;entryX=0;entryY=0.5;entryDx=0;entryDy=0;strokeColor=#E07A5F;fontColor=#393C56;fillColor=#F2CC8F;" parent="1" source="-BCDw-kD6YFoPXBWKz_H-1" target="x_fUMEMZIowkx61nRzpR-34" edge="1">
          <mxGeometry relative="1" as="geometry" />
        </mxCell>
        <mxCell id="-BCDw-kD6YFoPXBWKz_H-1" value="User" style="shape=umlActor;verticalLabelPosition=bottom;verticalAlign=top;html=1;outlineConnect=0;labelBackgroundColor=none;fillColor=#F2CC8F;strokeColor=#E07A5F;fontColor=#393C56;" parent="1" vertex="1">
          <mxGeometry x="80" y="220" width="30" height="60" as="geometry" />
        </mxCell>
        <mxCell id="-BCDw-kD6YFoPXBWKz_H-2" value="&lt;h1&gt;用户流程&lt;/h1&gt;&lt;p&gt;用户定义: 组织管理者为我们的应用用户&lt;/p&gt;&lt;p&gt;计费方式主要为座席服务费,包含了用户的文档管理,AI服务订阅等&lt;/p&gt;" style="text;html=1;strokeColor=none;fillColor=none;spacing=5;spacingTop=-20;whiteSpace=wrap;overflow=hidden;rounded=0;labelBackgroundColor=none;fontColor=#393C56;" parent="1" vertex="1">
          <mxGeometry x="30" y="30" width="250" height="120" as="geometry" />
        </mxCell>
        <mxCell id="x_fUMEMZIowkx61nRzpR-7" style="edgeStyle=orthogonalEdgeStyle;rounded=0;orthogonalLoop=1;jettySize=auto;html=1;entryX=0;entryY=0.5;entryDx=0;entryDy=0;labelBackgroundColor=none;strokeColor=#E07A5F;fontColor=default;" parent="1" source="-BCDw-kD6YFoPXBWKz_H-3" target="x_fUMEMZIowkx61nRzpR-1" edge="1">
          <mxGeometry relative="1" as="geometry" />
        </mxCell>
        <mxCell id="x_fUMEMZIowkx61nRzpR-8" style="edgeStyle=orthogonalEdgeStyle;rounded=0;orthogonalLoop=1;jettySize=auto;html=1;entryX=0;entryY=0.5;entryDx=0;entryDy=0;labelBackgroundColor=none;strokeColor=#E07A5F;fontColor=default;" parent="1" source="-BCDw-kD6YFoPXBWKz_H-3" target="x_fUMEMZIowkx61nRzpR-2" edge="1">
          <mxGeometry relative="1" as="geometry" />
        </mxCell>
        <mxCell id="x_fUMEMZIowkx61nRzpR-20" style="edgeStyle=orthogonalEdgeStyle;rounded=0;orthogonalLoop=1;jettySize=auto;html=1;entryX=0;entryY=0.5;entryDx=0;entryDy=0;strokeColor=#E07A5F;fontColor=#393C56;fillColor=#F2CC8F;" parent="1" source="-BCDw-kD6YFoPXBWKz_H-3" target="x_fUMEMZIowkx61nRzpR-19" edge="1">
          <mxGeometry relative="1" as="geometry" />
        </mxCell>
        <mxCell id="-BCDw-kD6YFoPXBWKz_H-3" value="无帐号" style="rounded=1;whiteSpace=wrap;html=1;spacingTop=4;spacingLeft=4;spacingBottom=4;spacingRight=4;labelBackgroundColor=none;fillColor=#F2CC8F;strokeColor=#E07A5F;fontColor=#393C56;" parent="1" vertex="1">
          <mxGeometry x="220" y="210" width="165" height="80" as="geometry" />
        </mxCell>
        <mxCell id="x_fUMEMZIowkx61nRzpR-1" value="查看演示页&lt;br&gt;可以理解为静态页面&lt;br&gt;用户可用查看整体页面,需要使用则带到注册页面" style="rounded=1;whiteSpace=wrap;html=1;spacingTop=4;spacingLeft=4;spacingBottom=4;spacingRight=4;labelBackgroundColor=none;fillColor=#F2CC8F;strokeColor=#E07A5F;fontColor=#393C56;" parent="1" vertex="1">
          <mxGeometry x="443" y="120" width="280" height="60" as="geometry" />
        </mxCell>
        <mxCell id="x_fUMEMZIowkx61nRzpR-9" style="edgeStyle=orthogonalEdgeStyle;rounded=0;orthogonalLoop=1;jettySize=auto;html=1;entryX=0;entryY=0.5;entryDx=0;entryDy=0;labelBackgroundColor=none;strokeColor=#E07A5F;fontColor=default;" parent="1" source="x_fUMEMZIowkx61nRzpR-2" target="x_fUMEMZIowkx61nRzpR-3" edge="1">
          <mxGeometry relative="1" as="geometry" />
        </mxCell>
        <mxCell id="x_fUMEMZIowkx61nRzpR-2" value="开始注册" style="rounded=1;whiteSpace=wrap;html=1;spacingTop=4;spacingLeft=4;spacingBottom=4;spacingRight=4;labelBackgroundColor=none;fillColor=#F2CC8F;strokeColor=#E07A5F;fontColor=#393C56;" parent="1" vertex="1">
          <mxGeometry x="443" y="234" width="80" height="30" as="geometry" />
        </mxCell>
        <mxCell id="x_fUMEMZIowkx61nRzpR-10" style="edgeStyle=orthogonalEdgeStyle;rounded=0;orthogonalLoop=1;jettySize=auto;html=1;labelBackgroundColor=none;strokeColor=#E07A5F;fontColor=default;" parent="1" source="x_fUMEMZIowkx61nRzpR-3" target="x_fUMEMZIowkx61nRzpR-5" edge="1">
          <mxGeometry relative="1" as="geometry" />
        </mxCell>
        <mxCell id="x_fUMEMZIowkx61nRzpR-3" value="输入手机号" style="rounded=1;whiteSpace=wrap;html=1;spacingTop=4;spacingLeft=4;spacingBottom=4;spacingRight=4;labelBackgroundColor=none;fillColor=#F2CC8F;strokeColor=#E07A5F;fontColor=#393C56;" parent="1" vertex="1">
          <mxGeometry x="553" y="234" width="80" height="30" as="geometry" />
        </mxCell>
        <mxCell id="x_fUMEMZIowkx61nRzpR-4" value="*.com/register&lt;br&gt;*.com/login" style="text;html=1;align=left;verticalAlign=middle;resizable=0;points=[];autosize=1;strokeColor=none;fillColor=none;labelBackgroundColor=none;fontColor=#393C56;" parent="1" vertex="1">
          <mxGeometry x="220" y="310" width="100" height="40" as="geometry" />
        </mxCell>
        <mxCell id="x_fUMEMZIowkx61nRzpR-11" style="edgeStyle=orthogonalEdgeStyle;rounded=0;orthogonalLoop=1;jettySize=auto;html=1;entryX=0;entryY=0.5;entryDx=0;entryDy=0;labelBackgroundColor=none;strokeColor=#E07A5F;fontColor=default;" parent="1" source="x_fUMEMZIowkx61nRzpR-5" target="x_fUMEMZIowkx61nRzpR-6" edge="1">
          <mxGeometry relative="1" as="geometry" />
        </mxCell>
        <mxCell id="x_fUMEMZIowkx61nRzpR-5" value="获得验证码" style="rounded=1;whiteSpace=wrap;html=1;spacingTop=4;spacingLeft=4;spacingBottom=4;spacingRight=4;labelBackgroundColor=none;fillColor=#F2CC8F;strokeColor=#E07A5F;fontColor=#393C56;" parent="1" vertex="1">
          <mxGeometry x="660" y="234" width="80" height="30" as="geometry" />
        </mxCell>
        <mxCell id="x_fUMEMZIowkx61nRzpR-17" style="edgeStyle=orthogonalEdgeStyle;rounded=0;orthogonalLoop=1;jettySize=auto;html=1;labelBackgroundColor=none;strokeColor=#E07A5F;fontColor=default;" parent="1" source="x_fUMEMZIowkx61nRzpR-6" target="x_fUMEMZIowkx61nRzpR-12" edge="1">
          <mxGeometry relative="1" as="geometry" />
        </mxCell>
        <mxCell id="x_fUMEMZIowkx61nRzpR-41" style="edgeStyle=orthogonalEdgeStyle;rounded=0;orthogonalLoop=1;jettySize=auto;html=1;strokeColor=#E07A5F;fontColor=#393C56;fillColor=#F2CC8F;" parent="1" source="x_fUMEMZIowkx61nRzpR-6" target="x_fUMEMZIowkx61nRzpR-21" edge="1">
          <mxGeometry relative="1" as="geometry" />
        </mxCell>
        <mxCell id="x_fUMEMZIowkx61nRzpR-6" value="填写用户信息表单" style="rounded=1;whiteSpace=wrap;html=1;spacingTop=4;spacingLeft=4;spacingBottom=4;spacingRight=4;labelBackgroundColor=none;fillColor=#F2CC8F;strokeColor=#E07A5F;fontColor=#393C56;" parent="1" vertex="1">
          <mxGeometry x="790" y="234" width="120" height="30" as="geometry" />
        </mxCell>
        <mxCell id="x_fUMEMZIowkx61nRzpR-12" value="新用户" style="swimlane;fontStyle=0;childLayout=stackLayout;horizontal=1;startSize=30;horizontalStack=0;resizeParent=1;resizeParentMax=0;resizeLast=0;collapsible=1;marginBottom=0;whiteSpace=wrap;html=1;labelBackgroundColor=none;fillColor=#F2CC8F;strokeColor=#E07A5F;fontColor=#393C56;" parent="1" vertex="1">
          <mxGeometry x="780" y="304" width="140" height="150" as="geometry">
            <mxRectangle x="860" y="280" width="80" height="30" as="alternateBounds" />
          </mxGeometry>
        </mxCell>
        <mxCell id="x_fUMEMZIowkx61nRzpR-13" value="* 企业组织名称" style="text;strokeColor=none;fillColor=none;align=left;verticalAlign=middle;spacingLeft=4;spacingRight=4;overflow=hidden;points=[[0,0.5],[1,0.5]];portConstraint=eastwest;rotatable=0;whiteSpace=wrap;html=1;labelBackgroundColor=none;fontColor=#393C56;" parent="x_fUMEMZIowkx61nRzpR-12" vertex="1">
          <mxGeometry y="30" width="140" height="30" as="geometry" />
        </mxCell>
        <mxCell id="x_fUMEMZIowkx61nRzpR-14" value="是否企业联系人" style="text;strokeColor=none;fillColor=none;align=left;verticalAlign=middle;spacingLeft=4;spacingRight=4;overflow=hidden;points=[[0,0.5],[1,0.5]];portConstraint=eastwest;rotatable=0;whiteSpace=wrap;html=1;labelBackgroundColor=none;fontColor=#393C56;" parent="x_fUMEMZIowkx61nRzpR-12" vertex="1">
          <mxGeometry y="60" width="140" height="30" as="geometry" />
        </mxCell>
        <mxCell id="x_fUMEMZIowkx61nRzpR-15" value="邮箱/微信" style="text;strokeColor=none;fillColor=none;align=left;verticalAlign=middle;spacingLeft=4;spacingRight=4;overflow=hidden;points=[[0,0.5],[1,0.5]];portConstraint=eastwest;rotatable=0;whiteSpace=wrap;html=1;labelBackgroundColor=none;fontColor=#393C56;" parent="x_fUMEMZIowkx61nRzpR-12" vertex="1">
          <mxGeometry y="90" width="140" height="30" as="geometry" />
        </mxCell>
        <mxCell id="x_fUMEMZIowkx61nRzpR-16" value="id" style="text;strokeColor=none;fillColor=none;align=left;verticalAlign=middle;spacingLeft=4;spacingRight=4;overflow=hidden;points=[[0,0.5],[1,0.5]];portConstraint=eastwest;rotatable=0;whiteSpace=wrap;html=1;labelBackgroundColor=none;fontColor=#393C56;" parent="x_fUMEMZIowkx61nRzpR-12" vertex="1">
          <mxGeometry y="120" width="140" height="30" as="geometry" />
        </mxCell>
        <mxCell id="x_fUMEMZIowkx61nRzpR-19" value="联系商务 获取试用帐号,在平台公司下面的子帐号内提供试用" style="rounded=1;whiteSpace=wrap;html=1;spacingTop=4;spacingLeft=4;spacingBottom=4;spacingRight=4;labelBackgroundColor=none;fillColor=#F2CC8F;strokeColor=#E07A5F;fontColor=#393C56;" parent="1" vertex="1">
          <mxGeometry x="443" y="360" width="197" height="60" as="geometry" />
        </mxCell>
        <mxCell id="x_fUMEMZIowkx61nRzpR-42" style="edgeStyle=orthogonalEdgeStyle;rounded=0;orthogonalLoop=1;jettySize=auto;html=1;strokeColor=#E07A5F;fontColor=#393C56;fillColor=#F2CC8F;" parent="1" source="x_fUMEMZIowkx61nRzpR-21" target="x_fUMEMZIowkx61nRzpR-29" edge="1">
          <mxGeometry relative="1" as="geometry" />
        </mxCell>
        <mxCell id="x_fUMEMZIowkx61nRzpR-21" value="进入管理员身份界面" style="rounded=1;whiteSpace=wrap;html=1;spacingTop=4;spacingLeft=4;spacingBottom=4;spacingRight=4;labelBackgroundColor=none;fillColor=#F2CC8F;strokeColor=#E07A5F;fontColor=#393C56;" parent="1" vertex="1">
          <mxGeometry x="950" y="235" width="120" height="30" as="geometry" />
        </mxCell>
        <mxCell id="x_fUMEMZIowkx61nRzpR-23" value="子帐号菜单项" style="swimlane;fontStyle=0;childLayout=stackLayout;horizontal=1;startSize=30;horizontalStack=0;resizeParent=1;resizeParentMax=0;resizeLast=0;collapsible=1;marginBottom=0;whiteSpace=wrap;html=1;labelBackgroundColor=none;fillColor=#F2CC8F;strokeColor=#E07A5F;fontColor=#393C56;" parent="1" vertex="1">
          <mxGeometry x="1120" y="460" width="140" height="150" as="geometry">
            <mxRectangle x="860" y="280" width="80" height="30" as="alternateBounds" />
          </mxGeometry>
        </mxCell>
        <mxCell id="x_fUMEMZIowkx61nRzpR-24" value="我的文档/历史记录" style="text;strokeColor=none;fillColor=none;align=left;verticalAlign=middle;spacingLeft=4;spacingRight=4;overflow=hidden;points=[[0,0.5],[1,0.5]];portConstraint=eastwest;rotatable=0;whiteSpace=wrap;html=1;labelBackgroundColor=none;fontColor=#393C56;" parent="x_fUMEMZIowkx61nRzpR-23" vertex="1">
          <mxGeometry y="30" width="140" height="30" as="geometry" />
        </mxCell>
        <mxCell id="x_fUMEMZIowkx61nRzpR-25" value="文字问答" style="text;strokeColor=none;fillColor=none;align=left;verticalAlign=middle;spacingLeft=4;spacingRight=4;overflow=hidden;points=[[0,0.5],[1,0.5]];portConstraint=eastwest;rotatable=0;whiteSpace=wrap;html=1;labelBackgroundColor=none;fontColor=#393C56;" parent="x_fUMEMZIowkx61nRzpR-23" vertex="1">
          <mxGeometry y="60" width="140" height="30" as="geometry" />
        </mxCell>
        <mxCell id="x_fUMEMZIowkx61nRzpR-26" value="图像生成" style="text;strokeColor=none;fillColor=none;align=left;verticalAlign=middle;spacingLeft=4;spacingRight=4;overflow=hidden;points=[[0,0.5],[1,0.5]];portConstraint=eastwest;rotatable=0;whiteSpace=wrap;html=1;labelBackgroundColor=none;fontColor=#393C56;" parent="x_fUMEMZIowkx61nRzpR-23" vertex="1">
          <mxGeometry y="90" width="140" height="30" as="geometry" />
        </mxCell>
        <mxCell id="x_fUMEMZIowkx61nRzpR-28" value="其它AI服务..." style="text;strokeColor=none;fillColor=none;align=left;verticalAlign=middle;spacingLeft=4;spacingRight=4;overflow=hidden;points=[[0,0.5],[1,0.5]];portConstraint=eastwest;rotatable=0;whiteSpace=wrap;html=1;labelBackgroundColor=none;fontColor=#393C56;" parent="x_fUMEMZIowkx61nRzpR-23" vertex="1">
          <mxGeometry y="120" width="140" height="30" as="geometry" />
        </mxCell>
        <mxCell id="x_fUMEMZIowkx61nRzpR-29" value="管理员菜单项" style="swimlane;fontStyle=0;childLayout=stackLayout;horizontal=1;startSize=30;horizontalStack=0;resizeParent=1;resizeParentMax=0;resizeLast=0;collapsible=1;marginBottom=0;whiteSpace=wrap;html=1;labelBackgroundColor=none;fillColor=#F2CC8F;strokeColor=#E07A5F;fontColor=#393C56;" parent="1" vertex="1">
          <mxGeometry x="1120" y="235" width="140" height="210" as="geometry">
            <mxRectangle x="860" y="280" width="80" height="30" as="alternateBounds" />
          </mxGeometry>
        </mxCell>
        <mxCell id="x_fUMEMZIowkx61nRzpR-30" value="组织信息" style="text;strokeColor=none;fillColor=none;align=left;verticalAlign=middle;spacingLeft=4;spacingRight=4;overflow=hidden;points=[[0,0.5],[1,0.5]];portConstraint=eastwest;rotatable=0;whiteSpace=wrap;html=1;labelBackgroundColor=none;fontColor=#393C56;" parent="x_fUMEMZIowkx61nRzpR-29" vertex="1">
          <mxGeometry y="30" width="140" height="30" as="geometry" />
        </mxCell>
        <mxCell id="x_fUMEMZIowkx61nRzpR-31" value="账户费用" style="text;strokeColor=none;fillColor=none;align=left;verticalAlign=middle;spacingLeft=4;spacingRight=4;overflow=hidden;points=[[0,0.5],[1,0.5]];portConstraint=eastwest;rotatable=0;whiteSpace=wrap;html=1;labelBackgroundColor=none;fontColor=#393C56;" parent="x_fUMEMZIowkx61nRzpR-29" vertex="1">
          <mxGeometry y="60" width="140" height="30" as="geometry" />
        </mxCell>
        <mxCell id="x_fUMEMZIowkx61nRzpR-32" value="用量统计" style="text;strokeColor=none;fillColor=none;align=left;verticalAlign=middle;spacingLeft=4;spacingRight=4;overflow=hidden;points=[[0,0.5],[1,0.5]];portConstraint=eastwest;rotatable=0;whiteSpace=wrap;html=1;labelBackgroundColor=none;fontColor=#393C56;" parent="x_fUMEMZIowkx61nRzpR-29" vertex="1">
          <mxGeometry y="90" width="140" height="30" as="geometry" />
        </mxCell>
        <mxCell id="x_fUMEMZIowkx61nRzpR-33" value="子帐号管理" style="text;strokeColor=none;fillColor=none;align=left;verticalAlign=middle;spacingLeft=4;spacingRight=4;overflow=hidden;points=[[0,0.5],[1,0.5]];portConstraint=eastwest;rotatable=0;whiteSpace=wrap;html=1;labelBackgroundColor=none;fontColor=#393C56;" parent="x_fUMEMZIowkx61nRzpR-29" vertex="1">
          <mxGeometry y="120" width="140" height="30" as="geometry" />
        </mxCell>
        <mxCell id="x_fUMEMZIowkx61nRzpR-45" value="AI服务开通" style="text;strokeColor=none;fillColor=none;align=left;verticalAlign=middle;spacingLeft=4;spacingRight=4;overflow=hidden;points=[[0,0.5],[1,0.5]];portConstraint=eastwest;rotatable=0;whiteSpace=wrap;html=1;labelBackgroundColor=none;fontColor=#393C56;" parent="x_fUMEMZIowkx61nRzpR-29" vertex="1">
          <mxGeometry y="150" width="140" height="30" as="geometry" />
        </mxCell>
        <mxCell id="x_fUMEMZIowkx61nRzpR-40" value="其它使用和子帐号相同" style="text;strokeColor=none;fillColor=none;align=left;verticalAlign=middle;spacingLeft=4;spacingRight=4;overflow=hidden;points=[[0,0.5],[1,0.5]];portConstraint=eastwest;rotatable=0;whiteSpace=wrap;html=1;labelBackgroundColor=none;fontColor=#7EA6E0;" parent="x_fUMEMZIowkx61nRzpR-29" vertex="1">
          <mxGeometry y="180" width="140" height="30" as="geometry" />
        </mxCell>
        <mxCell id="x_fUMEMZIowkx61nRzpR-37" style="edgeStyle=orthogonalEdgeStyle;rounded=0;orthogonalLoop=1;jettySize=auto;html=1;entryX=0;entryY=0.25;entryDx=0;entryDy=0;strokeColor=#E07A5F;fontColor=#393C56;fillColor=#F2CC8F;" parent="1" source="x_fUMEMZIowkx61nRzpR-34" target="x_fUMEMZIowkx61nRzpR-36" edge="1">
          <mxGeometry relative="1" as="geometry" />
        </mxCell>
        <mxCell id="x_fUMEMZIowkx61nRzpR-34" value="已有子帐号" style="rounded=1;whiteSpace=wrap;html=1;spacingTop=4;spacingLeft=4;spacingBottom=4;spacingRight=4;labelBackgroundColor=none;fillColor=#F2CC8F;strokeColor=#E07A5F;fontColor=#393C56;" parent="1" vertex="1">
          <mxGeometry x="220" y="485" width="165" height="80" as="geometry" />
        </mxCell>
        <mxCell id="x_fUMEMZIowkx61nRzpR-39" style="edgeStyle=orthogonalEdgeStyle;rounded=0;orthogonalLoop=1;jettySize=auto;html=1;entryX=0.042;entryY=1.215;entryDx=0;entryDy=0;entryPerimeter=0;strokeColor=#E07A5F;fontColor=#393C56;fillColor=#F2CC8F;" parent="1" source="x_fUMEMZIowkx61nRzpR-36" target="x_fUMEMZIowkx61nRzpR-24" edge="1">
          <mxGeometry relative="1" as="geometry" />
        </mxCell>
        <mxCell id="x_fUMEMZIowkx61nRzpR-36" value="进入子帐号身份界面" style="rounded=1;whiteSpace=wrap;html=1;spacingTop=4;spacingLeft=4;spacingBottom=4;spacingRight=4;labelBackgroundColor=none;fillColor=#F2CC8F;strokeColor=#E07A5F;fontColor=#393C56;" parent="1" vertex="1">
          <mxGeometry x="850" y="510" width="120" height="30" as="geometry" />
        </mxCell>
        <mxCell id="x_fUMEMZIowkx61nRzpR-43" value="&lt;h1&gt;子帐号设计&lt;/h1&gt;&lt;h1&gt;&lt;span style=&quot;font-size: 12px; font-weight: 400;&quot;&gt;管理者给予下属用户子帐号:&amp;nbsp;&lt;/span&gt;&lt;/h1&gt;&lt;div&gt;用户名&lt;/div&gt;&lt;div&gt;密码&lt;/div&gt;&lt;div&gt;&lt;br&gt;&lt;/div&gt;&lt;div&gt;真实用户可以既是组织者,也是其它子帐号用户,视其登录身份而定&lt;/div&gt;" style="text;html=1;strokeColor=none;fillColor=none;spacing=5;spacingTop=-20;whiteSpace=wrap;overflow=hidden;rounded=0;labelBackgroundColor=none;fontColor=#393C56;" parent="1" vertex="1">
          <mxGeometry x="220" y="580" width="205" height="210" as="geometry" />
        </mxCell>
        <mxCell id="x_fUMEMZIowkx61nRzpR-44" value="&lt;h1&gt;主帐号设计&lt;/h1&gt;&lt;h1&gt;&lt;span style=&quot;font-size: 12px; font-weight: 400;&quot;&gt;和子帐号的区别在于:&lt;/span&gt;&lt;/h1&gt;&lt;div&gt;有企业信息,有支付能力,可以查看统计和子帐号的开通与停用.&lt;/div&gt;&lt;div&gt;其它使用服务和子帐号一样.&lt;/div&gt;" style="text;html=1;strokeColor=none;fillColor=none;spacing=5;spacingTop=-20;whiteSpace=wrap;overflow=hidden;rounded=0;labelBackgroundColor=none;fontColor=#393C56;" parent="1" vertex="1">
          <mxGeometry x="470" y="580" width="205" height="210" as="geometry" />
        </mxCell>
        <mxCell id="x_fUMEMZIowkx61nRzpR-46" value="用户订阅付费样例" style="shape=table;childLayout=tableLayout;startSize=40;collapsible=0;recursiveResize=0;expand=0;fontSize=16;strokeColor=#E07A5F;fontColor=#393C56;fillColor=#F2CC8F;" parent="1" vertex="1">
          <mxGeometry x="810" y="710" width="520" height="400" as="geometry" />
        </mxCell>
        <mxCell id="x_fUMEMZIowkx61nRzpR-47" value="无子帐号" style="shape=tableRow;horizontal=0;swimlaneHead=0;swimlaneBody=0;top=0;left=0;strokeColor=inherit;bottom=0;right=0;dropTarget=0;fontStyle=0;fillColor=none;points=[[0,0.5],[1,0.5]];portConstraint=eastwest;startSize=40;collapsible=0;recursiveResize=0;expand=0;fontSize=16;fontColor=#393C56;" parent="x_fUMEMZIowkx61nRzpR-46" vertex="1">
          <mxGeometry y="40" width="520" height="120" as="geometry" />
        </mxCell>
        <mxCell id="x_fUMEMZIowkx61nRzpR-48" value="基础费用/月,年/人" style="swimlane;swimlaneHead=0;swimlaneBody=0;fontStyle=0;strokeColor=inherit;connectable=0;fillColor=none;startSize=40;collapsible=0;recursiveResize=0;expand=0;fontSize=16;fontColor=#393C56;" parent="x_fUMEMZIowkx61nRzpR-47" vertex="1">
          <mxGeometry x="40" width="140" height="120" as="geometry">
            <mxRectangle width="140" height="120" as="alternateBounds" />
          </mxGeometry>
        </mxCell>
        <mxCell id="x_fUMEMZIowkx61nRzpR-59" value="12 x 30元" style="text;html=1;align=center;verticalAlign=middle;resizable=0;points=[];autosize=1;strokeColor=none;fillColor=none;fontColor=#393C56;" parent="x_fUMEMZIowkx61nRzpR-48" vertex="1">
          <mxGeometry x="20" y="60" width="70" height="30" as="geometry" />
        </mxCell>
        <mxCell id="x_fUMEMZIowkx61nRzpR-49" value="chatGPT / 年" style="swimlane;swimlaneHead=0;swimlaneBody=0;fontStyle=0;strokeColor=inherit;connectable=0;fillColor=none;startSize=40;collapsible=0;recursiveResize=0;expand=0;fontSize=16;fontColor=#393C56;" parent="x_fUMEMZIowkx61nRzpR-47" vertex="1">
          <mxGeometry x="180" width="180" height="120" as="geometry">
            <mxRectangle width="180" height="120" as="alternateBounds" />
          </mxGeometry>
        </mxCell>
        <mxCell id="x_fUMEMZIowkx61nRzpR-61" value="12 x 100元 &amp;nbsp;100万字/月限量" style="text;html=1;align=center;verticalAlign=middle;resizable=0;points=[];autosize=1;strokeColor=none;fillColor=none;fontColor=#393C56;" parent="x_fUMEMZIowkx61nRzpR-49" vertex="1">
          <mxGeometry x="-5" y="60" width="170" height="30" as="geometry" />
        </mxCell>
        <mxCell id="x_fUMEMZIowkx61nRzpR-50" value="Midjourney / 年" style="swimlane;swimlaneHead=0;swimlaneBody=0;fontStyle=0;strokeColor=inherit;connectable=0;fillColor=none;startSize=40;collapsible=0;recursiveResize=0;expand=0;fontSize=16;fontColor=#393C56;" parent="x_fUMEMZIowkx61nRzpR-47" vertex="1">
          <mxGeometry x="360" width="160" height="120" as="geometry">
            <mxRectangle width="160" height="120" as="alternateBounds" />
          </mxGeometry>
        </mxCell>
        <mxCell id="x_fUMEMZIowkx61nRzpR-62" value="12 x 100元 &amp;nbsp;200图/月限量" style="text;html=1;align=center;verticalAlign=middle;resizable=0;points=[];autosize=1;strokeColor=none;fillColor=none;fontColor=#393C56;" parent="x_fUMEMZIowkx61nRzpR-50" vertex="1">
          <mxGeometry x="-7" y="58" width="160" height="30" as="geometry" />
        </mxCell>
        <mxCell id="x_fUMEMZIowkx61nRzpR-51" value="5人子帐号" style="shape=tableRow;horizontal=0;swimlaneHead=0;swimlaneBody=0;top=0;left=0;strokeColor=inherit;bottom=0;right=0;dropTarget=0;fontStyle=0;fillColor=none;points=[[0,0.5],[1,0.5]];portConstraint=eastwest;startSize=40;collapsible=0;recursiveResize=0;expand=0;fontSize=16;fontColor=#393C56;" parent="x_fUMEMZIowkx61nRzpR-46" vertex="1">
          <mxGeometry y="160" width="520" height="120" as="geometry" />
        </mxCell>
        <mxCell id="x_fUMEMZIowkx61nRzpR-52" value="" style="swimlane;swimlaneHead=0;swimlaneBody=0;fontStyle=0;connectable=0;strokeColor=inherit;fillColor=none;startSize=0;collapsible=0;recursiveResize=0;expand=0;fontSize=16;fontColor=#393C56;" parent="x_fUMEMZIowkx61nRzpR-51" vertex="1">
          <mxGeometry x="40" width="140" height="120" as="geometry">
            <mxRectangle width="140" height="120" as="alternateBounds" />
          </mxGeometry>
        </mxCell>
        <mxCell id="x_fUMEMZIowkx61nRzpR-60" value="12 x 5人 x 30元" style="text;html=1;align=center;verticalAlign=middle;resizable=0;points=[];autosize=1;strokeColor=none;fillColor=none;fontColor=#393C56;" parent="x_fUMEMZIowkx61nRzpR-52" vertex="1">
          <mxGeometry x="10" y="45" width="110" height="30" as="geometry" />
        </mxCell>
        <mxCell id="x_fUMEMZIowkx61nRzpR-53" value="" style="swimlane;swimlaneHead=0;swimlaneBody=0;fontStyle=0;connectable=0;strokeColor=inherit;fillColor=none;startSize=0;collapsible=0;recursiveResize=0;expand=0;fontSize=16;fontColor=#393C56;" parent="x_fUMEMZIowkx61nRzpR-51" vertex="1">
          <mxGeometry x="180" width="180" height="120" as="geometry">
            <mxRectangle width="180" height="120" as="alternateBounds" />
          </mxGeometry>
        </mxCell>
        <mxCell id="x_fUMEMZIowkx61nRzpR-63" value="同上" style="text;html=1;align=center;verticalAlign=middle;resizable=0;points=[];autosize=1;strokeColor=none;fillColor=none;fontColor=#393C56;" parent="x_fUMEMZIowkx61nRzpR-53" vertex="1">
          <mxGeometry x="65" y="45" width="50" height="30" as="geometry" />
        </mxCell>
        <mxCell id="x_fUMEMZIowkx61nRzpR-54" value="" style="swimlane;swimlaneHead=0;swimlaneBody=0;fontStyle=0;connectable=0;strokeColor=inherit;fillColor=none;startSize=0;collapsible=0;recursiveResize=0;expand=0;fontSize=16;fontColor=#393C56;" parent="x_fUMEMZIowkx61nRzpR-51" vertex="1">
          <mxGeometry x="360" width="160" height="120" as="geometry">
            <mxRectangle width="160" height="120" as="alternateBounds" />
          </mxGeometry>
        </mxCell>
        <mxCell id="x_fUMEMZIowkx61nRzpR-64" value="同上" style="text;html=1;align=center;verticalAlign=middle;resizable=0;points=[];autosize=1;strokeColor=none;fillColor=none;fontColor=#393C56;" parent="x_fUMEMZIowkx61nRzpR-54" vertex="1">
          <mxGeometry x="48" y="45" width="50" height="30" as="geometry" />
        </mxCell>
        <mxCell id="x_fUMEMZIowkx61nRzpR-55" value="定制量" style="shape=tableRow;horizontal=0;swimlaneHead=0;swimlaneBody=0;top=0;left=0;strokeColor=inherit;bottom=0;right=0;dropTarget=0;fontStyle=0;fillColor=none;points=[[0,0.5],[1,0.5]];portConstraint=eastwest;startSize=40;collapsible=0;recursiveResize=0;expand=0;fontSize=16;fontColor=#393C56;" parent="x_fUMEMZIowkx61nRzpR-46" vertex="1">
          <mxGeometry y="280" width="520" height="120" as="geometry" />
        </mxCell>
        <mxCell id="x_fUMEMZIowkx61nRzpR-56" value="" style="swimlane;swimlaneHead=0;swimlaneBody=0;fontStyle=0;connectable=0;strokeColor=inherit;fillColor=none;startSize=0;collapsible=0;recursiveResize=0;expand=0;fontSize=16;fontColor=#393C56;" parent="x_fUMEMZIowkx61nRzpR-55" vertex="1">
          <mxGeometry x="40" width="140" height="120" as="geometry">
            <mxRectangle width="140" height="120" as="alternateBounds" />
          </mxGeometry>
        </mxCell>
        <mxCell id="x_fUMEMZIowkx61nRzpR-57" value="" style="swimlane;swimlaneHead=0;swimlaneBody=0;fontStyle=0;connectable=0;strokeColor=inherit;fillColor=none;startSize=0;collapsible=0;recursiveResize=0;expand=0;fontSize=16;fontColor=#393C56;" parent="x_fUMEMZIowkx61nRzpR-55" vertex="1">
          <mxGeometry x="180" width="180" height="120" as="geometry">
            <mxRectangle width="180" height="120" as="alternateBounds" />
          </mxGeometry>
        </mxCell>
        <mxCell id="x_fUMEMZIowkx61nRzpR-58" value="" style="swimlane;swimlaneHead=0;swimlaneBody=0;fontStyle=0;connectable=0;strokeColor=inherit;fillColor=none;startSize=0;collapsible=0;recursiveResize=0;expand=0;fontSize=16;fontColor=#393C56;" parent="x_fUMEMZIowkx61nRzpR-55" vertex="1">
          <mxGeometry x="360" width="160" height="120" as="geometry">
            <mxRectangle width="160" height="120" as="alternateBounds" />
          </mxGeometry>
        </mxCell>
      </root>
    </mxGraphModel>
  </diagram>
  <diagram id="rRSc_ur9lZob2JiMtS-4" name="聚美app流程">
    <mxGraphModel dx="1197" dy="1284" grid="1" gridSize="10" guides="1" tooltips="1" connect="1" arrows="1" fold="1" page="1" pageScale="1" pageWidth="827" pageHeight="1169" math="0" shadow="0">
      <root>
        <mxCell id="0" />
        <mxCell id="1" parent="0" />
        <mxCell id="YVvzEUrq8drLlfdrbXNN-1" value="User" style="shape=umlActor;verticalLabelPosition=bottom;verticalAlign=top;html=1;outlineConnect=0;labelBackgroundColor=none;fillColor=#F2CC8F;strokeColor=#E07A5F;fontColor=#393C56;" vertex="1" parent="1">
          <mxGeometry x="24" y="130" width="30" height="60" as="geometry" />
        </mxCell>
        <mxCell id="YVvzEUrq8drLlfdrbXNN-14" style="edgeStyle=orthogonalEdgeStyle;rounded=0;orthogonalLoop=1;jettySize=auto;html=1;" edge="1" parent="1" source="YVvzEUrq8drLlfdrbXNN-2" target="YVvzEUrq8drLlfdrbXNN-3">
          <mxGeometry relative="1" as="geometry" />
        </mxCell>
        <mxCell id="YVvzEUrq8drLlfdrbXNN-2" value="点击注册链接,&lt;br&gt;小程序登录" style="rounded=0;whiteSpace=wrap;html=1;fillColor=#ffe6cc;strokeColor=#d79b00;" vertex="1" parent="1">
          <mxGeometry x="144" y="130" width="120" height="60" as="geometry" />
        </mxCell>
        <mxCell id="YVvzEUrq8drLlfdrbXNN-15" style="edgeStyle=orthogonalEdgeStyle;rounded=0;orthogonalLoop=1;jettySize=auto;html=1;entryX=0;entryY=0.5;entryDx=0;entryDy=0;" edge="1" parent="1" source="YVvzEUrq8drLlfdrbXNN-3" target="YVvzEUrq8drLlfdrbXNN-4">
          <mxGeometry relative="1" as="geometry" />
        </mxCell>
        <mxCell id="YVvzEUrq8drLlfdrbXNN-3" value="输入姓名,性别,获取电话&lt;br&gt;(注册)" style="rounded=0;whiteSpace=wrap;html=1;fillColor=#ffe6cc;strokeColor=#d79b00;" vertex="1" parent="1">
          <mxGeometry x="309" y="130" width="115" height="60" as="geometry" />
        </mxCell>
        <mxCell id="YVvzEUrq8drLlfdrbXNN-18" style="edgeStyle=orthogonalEdgeStyle;rounded=0;orthogonalLoop=1;jettySize=auto;html=1;entryX=0.5;entryY=0;entryDx=0;entryDy=0;" edge="1" parent="1" source="YVvzEUrq8drLlfdrbXNN-4" target="YVvzEUrq8drLlfdrbXNN-7">
          <mxGeometry relative="1" as="geometry" />
        </mxCell>
        <mxCell id="YVvzEUrq8drLlfdrbXNN-4" value="进入预约流程&lt;br&gt;询问手术时间&lt;br&gt;使用日历UI,&lt;br&gt;精确到小时分钟" style="rounded=0;whiteSpace=wrap;html=1;fillColor=#ffe6cc;strokeColor=#d79b00;" vertex="1" parent="1">
          <mxGeometry x="474" y="130" width="120" height="60" as="geometry" />
        </mxCell>
        <mxCell id="YVvzEUrq8drLlfdrbXNN-5" value="管理员" style="shape=umlActor;verticalLabelPosition=bottom;verticalAlign=top;html=1;outlineConnect=0;labelBackgroundColor=none;fillColor=#F2CC8F;strokeColor=#E07A5F;fontColor=#393C56;" vertex="1" parent="1">
          <mxGeometry x="24" y="270" width="30" height="60" as="geometry" />
        </mxCell>
        <mxCell id="YVvzEUrq8drLlfdrbXNN-17" style="edgeStyle=orthogonalEdgeStyle;rounded=0;orthogonalLoop=1;jettySize=auto;html=1;" edge="1" parent="1" source="YVvzEUrq8drLlfdrbXNN-6" target="YVvzEUrq8drLlfdrbXNN-7">
          <mxGeometry relative="1" as="geometry" />
        </mxCell>
        <mxCell id="YVvzEUrq8drLlfdrbXNN-6" value="可查询 &amp;nbsp; 用户&lt;br&gt;预约记录&lt;br&gt;治疗记录&lt;br&gt;健康档案&lt;br&gt;可查询 治疗师&lt;br&gt;治疗记录&lt;br&gt;可查询 &amp;nbsp;产品&lt;br&gt;流转状态&lt;br&gt;可查询 &amp;nbsp;订单记录" style="rounded=0;whiteSpace=wrap;html=1;fillColor=#ffe6cc;strokeColor=#d79b00;" vertex="1" parent="1">
          <mxGeometry x="309" y="240" width="120" height="180" as="geometry" />
        </mxCell>
        <mxCell id="YVvzEUrq8drLlfdrbXNN-19" style="edgeStyle=orthogonalEdgeStyle;rounded=0;orthogonalLoop=1;jettySize=auto;html=1;entryX=0.5;entryY=0;entryDx=0;entryDy=0;" edge="1" parent="1" source="YVvzEUrq8drLlfdrbXNN-7" target="YVvzEUrq8drLlfdrbXNN-9">
          <mxGeometry relative="1" as="geometry" />
        </mxCell>
        <mxCell id="YVvzEUrq8drLlfdrbXNN-7" value="获取预约通知" style="rounded=0;whiteSpace=wrap;html=1;fillColor=#ffe6cc;strokeColor=#d79b00;" vertex="1" parent="1">
          <mxGeometry x="474" y="280" width="120" height="50" as="geometry" />
        </mxCell>
        <mxCell id="YVvzEUrq8drLlfdrbXNN-8" value="操作师" style="shape=umlActor;verticalLabelPosition=bottom;verticalAlign=top;html=1;outlineConnect=0;labelBackgroundColor=none;fillColor=#F2CC8F;strokeColor=#E07A5F;fontColor=#393C56;" vertex="1" parent="1">
          <mxGeometry x="24" y="450" width="30" height="60" as="geometry" />
        </mxCell>
        <mxCell id="YVvzEUrq8drLlfdrbXNN-9" value="调度生产,确认产品配送地点与时间&lt;br&gt;确保按时送达" style="rounded=0;whiteSpace=wrap;html=1;fillColor=#ffe6cc;strokeColor=#d79b00;" vertex="1" parent="1">
          <mxGeometry x="474" y="360" width="120" height="70" as="geometry" />
        </mxCell>
        <mxCell id="YVvzEUrq8drLlfdrbXNN-52" style="edgeStyle=orthogonalEdgeStyle;rounded=0;orthogonalLoop=1;jettySize=auto;html=1;entryX=0.75;entryY=0;entryDx=0;entryDy=0;" edge="1" parent="1" source="YVvzEUrq8drLlfdrbXNN-10" target="YVvzEUrq8drLlfdrbXNN-29">
          <mxGeometry relative="1" as="geometry" />
        </mxCell>
        <mxCell id="YVvzEUrq8drLlfdrbXNN-10" value="获取预约通知,&lt;br&gt;通知预约更新" style="rounded=0;whiteSpace=wrap;html=1;fillColor=#ffe6cc;strokeColor=#d79b00;" vertex="1" parent="1">
          <mxGeometry x="474" y="460" width="120" height="60" as="geometry" />
        </mxCell>
        <mxCell id="YVvzEUrq8drLlfdrbXNN-16" style="edgeStyle=orthogonalEdgeStyle;rounded=0;orthogonalLoop=1;jettySize=auto;html=1;entryX=0;entryY=0.5;entryDx=0;entryDy=0;" edge="1" parent="1" source="YVvzEUrq8drLlfdrbXNN-11" target="YVvzEUrq8drLlfdrbXNN-6">
          <mxGeometry relative="1" as="geometry" />
        </mxCell>
        <mxCell id="YVvzEUrq8drLlfdrbXNN-11" value="管理后台分配帐号&lt;br&gt;WEB登录" style="rounded=0;whiteSpace=wrap;html=1;fillColor=#ffe6cc;strokeColor=#d79b00;" vertex="1" parent="1">
          <mxGeometry x="143" y="280" width="120" height="60" as="geometry" />
        </mxCell>
        <mxCell id="YVvzEUrq8drLlfdrbXNN-20" style="edgeStyle=orthogonalEdgeStyle;rounded=0;orthogonalLoop=1;jettySize=auto;html=1;entryX=0;entryY=0.5;entryDx=0;entryDy=0;" edge="1" parent="1" source="YVvzEUrq8drLlfdrbXNN-12" target="YVvzEUrq8drLlfdrbXNN-10">
          <mxGeometry relative="1" as="geometry" />
        </mxCell>
        <mxCell id="YVvzEUrq8drLlfdrbXNN-12" value="管理后台分配帐号&lt;br&gt;小程序登录" style="rounded=0;whiteSpace=wrap;html=1;fillColor=#ffe6cc;strokeColor=#d79b00;" vertex="1" parent="1">
          <mxGeometry x="143" y="460" width="120" height="60" as="geometry" />
        </mxCell>
        <mxCell id="YVvzEUrq8drLlfdrbXNN-28" style="edgeStyle=orthogonalEdgeStyle;rounded=0;orthogonalLoop=1;jettySize=auto;html=1;" edge="1" parent="1" source="YVvzEUrq8drLlfdrbXNN-21" target="YVvzEUrq8drLlfdrbXNN-25">
          <mxGeometry relative="1" as="geometry" />
        </mxCell>
        <mxCell id="YVvzEUrq8drLlfdrbXNN-21" value="产品生产完毕,并开始配送" style="rounded=0;whiteSpace=wrap;html=1;" vertex="1" parent="1">
          <mxGeometry x="24" y="570" width="170" height="40" as="geometry" />
        </mxCell>
        <mxCell id="YVvzEUrq8drLlfdrbXNN-31" style="edgeStyle=orthogonalEdgeStyle;rounded=0;orthogonalLoop=1;jettySize=auto;html=1;entryX=0;entryY=0.5;entryDx=0;entryDy=0;" edge="1" parent="1" source="YVvzEUrq8drLlfdrbXNN-22" target="YVvzEUrq8drLlfdrbXNN-29">
          <mxGeometry relative="1" as="geometry" />
        </mxCell>
        <mxCell id="YVvzEUrq8drLlfdrbXNN-22" value="User" style="shape=umlActor;verticalLabelPosition=bottom;verticalAlign=top;html=1;outlineConnect=0;labelBackgroundColor=none;fillColor=#F2CC8F;strokeColor=#E07A5F;fontColor=#393C56;" vertex="1" parent="1">
          <mxGeometry x="334" y="670" width="30" height="60" as="geometry" />
        </mxCell>
        <mxCell id="YVvzEUrq8drLlfdrbXNN-24" style="edgeStyle=orthogonalEdgeStyle;rounded=0;orthogonalLoop=1;jettySize=auto;html=1;" edge="1" parent="1" source="YVvzEUrq8drLlfdrbXNN-23" target="YVvzEUrq8drLlfdrbXNN-22">
          <mxGeometry relative="1" as="geometry" />
        </mxCell>
        <mxCell id="YVvzEUrq8drLlfdrbXNN-23" value="发送通知&lt;br&gt;微信/短信 通知用户&lt;br&gt;指定地点,时间&lt;br&gt;(如需协调,人工介入后,在后台修改更新)&lt;br&gt;管理员也可决定下一个疗程时间." style="rounded=0;whiteSpace=wrap;html=1;fillColor=#ffe6cc;strokeColor=#d79b00;" vertex="1" parent="1">
          <mxGeometry x="134" y="660" width="120" height="130" as="geometry" />
        </mxCell>
        <mxCell id="YVvzEUrq8drLlfdrbXNN-26" style="edgeStyle=orthogonalEdgeStyle;rounded=0;orthogonalLoop=1;jettySize=auto;html=1;entryX=0;entryY=0.5;entryDx=0;entryDy=0;" edge="1" parent="1" source="YVvzEUrq8drLlfdrbXNN-25" target="YVvzEUrq8drLlfdrbXNN-23">
          <mxGeometry relative="1" as="geometry" />
        </mxCell>
        <mxCell id="YVvzEUrq8drLlfdrbXNN-25" value="管理员" style="shape=umlActor;verticalLabelPosition=bottom;verticalAlign=top;html=1;outlineConnect=0;labelBackgroundColor=none;fillColor=#F2CC8F;strokeColor=#E07A5F;fontColor=#393C56;" vertex="1" parent="1">
          <mxGeometry x="24" y="670" width="30" height="60" as="geometry" />
        </mxCell>
        <mxCell id="YVvzEUrq8drLlfdrbXNN-29" value="开始接受治疗&lt;br&gt;/再接受治疗" style="rounded=1;whiteSpace=wrap;html=1;fillColor=#ffe6cc;strokeColor=#d79b00;sketch=1;curveFitting=1;jiggle=2;" vertex="1" parent="1">
          <mxGeometry x="444" y="660" width="120" height="80" as="geometry" />
        </mxCell>
        <mxCell id="YVvzEUrq8drLlfdrbXNN-32" style="edgeStyle=orthogonalEdgeStyle;rounded=0;orthogonalLoop=1;jettySize=auto;html=1;" edge="1" parent="1" source="YVvzEUrq8drLlfdrbXNN-30" target="YVvzEUrq8drLlfdrbXNN-29">
          <mxGeometry relative="1" as="geometry" />
        </mxCell>
        <mxCell id="YVvzEUrq8drLlfdrbXNN-30" value="用户如期到达后" style="rounded=0;whiteSpace=wrap;html=1;" vertex="1" parent="1">
          <mxGeometry x="419" y="570" width="170" height="40" as="geometry" />
        </mxCell>
        <mxCell id="YVvzEUrq8drLlfdrbXNN-33" value="操作师" style="shape=umlActor;verticalLabelPosition=bottom;verticalAlign=top;html=1;outlineConnect=0;labelBackgroundColor=none;fillColor=#F2CC8F;strokeColor=#E07A5F;fontColor=#393C56;" vertex="1" parent="1">
          <mxGeometry x="334" y="810" width="30" height="60" as="geometry" />
        </mxCell>
        <mxCell id="YVvzEUrq8drLlfdrbXNN-35" style="edgeStyle=orthogonalEdgeStyle;rounded=0;orthogonalLoop=1;jettySize=auto;html=1;entryX=0.5;entryY=1;entryDx=0;entryDy=0;" edge="1" parent="1" source="YVvzEUrq8drLlfdrbXNN-34" target="YVvzEUrq8drLlfdrbXNN-29">
          <mxGeometry relative="1" as="geometry" />
        </mxCell>
        <mxCell id="YVvzEUrq8drLlfdrbXNN-34" value="第一次治疗,拍摄用户5张头部照片上传;建立用户跟踪档案;&lt;br&gt;填写治疗记录;&lt;br&gt;填写/扫码对应药物编号;&lt;br&gt;确认本次治疗完成.&lt;br&gt;&lt;br&gt;后续治疗流程相同" style="rounded=0;whiteSpace=wrap;html=1;fillColor=#ffe6cc;strokeColor=#d79b00;" vertex="1" parent="1">
          <mxGeometry x="444" y="800" width="160" height="130" as="geometry" />
        </mxCell>
        <mxCell id="YVvzEUrq8drLlfdrbXNN-36" style="edgeStyle=orthogonalEdgeStyle;rounded=0;orthogonalLoop=1;jettySize=auto;html=1;entryX=0.003;entryY=0.309;entryDx=0;entryDy=0;entryPerimeter=0;" edge="1" parent="1" source="YVvzEUrq8drLlfdrbXNN-33" target="YVvzEUrq8drLlfdrbXNN-34">
          <mxGeometry relative="1" as="geometry" />
        </mxCell>
        <mxCell id="YVvzEUrq8drLlfdrbXNN-47" style="edgeStyle=orthogonalEdgeStyle;rounded=0;orthogonalLoop=1;jettySize=auto;html=1;entryX=1;entryY=0.5;entryDx=0;entryDy=0;" edge="1" parent="1" source="YVvzEUrq8drLlfdrbXNN-37" target="YVvzEUrq8drLlfdrbXNN-7">
          <mxGeometry relative="1" as="geometry" />
        </mxCell>
        <mxCell id="YVvzEUrq8drLlfdrbXNN-37" value="用户通知系统&lt;br&gt;可发送微信通知&lt;br&gt;可发送短信" style="rounded=0;whiteSpace=wrap;html=1;fillColor=#dae8fc;strokeColor=#6c8ebf;align=left;" vertex="1" parent="1">
          <mxGeometry x="649" y="460" width="155" height="50" as="geometry" />
        </mxCell>
        <mxCell id="YVvzEUrq8drLlfdrbXNN-48" style="edgeStyle=orthogonalEdgeStyle;rounded=0;orthogonalLoop=1;jettySize=auto;html=1;entryX=1;entryY=0.5;entryDx=0;entryDy=0;" edge="1" parent="1" source="YVvzEUrq8drLlfdrbXNN-38" target="YVvzEUrq8drLlfdrbXNN-7">
          <mxGeometry relative="1" as="geometry" />
        </mxCell>
        <mxCell id="YVvzEUrq8drLlfdrbXNN-38" value="药品管理系统&lt;br&gt;&lt;br&gt;记录库存使用或生产的药物信息&lt;br&gt;关联预约记录&lt;br&gt;状态(已下单,已生产,已配送,已使用)" style="rounded=0;whiteSpace=wrap;html=1;fillColor=#dae8fc;strokeColor=#6c8ebf;align=left;verticalAlign=top;" vertex="1" parent="1">
          <mxGeometry x="649" y="560" width="155" height="150" as="geometry" />
        </mxCell>
        <mxCell id="YVvzEUrq8drLlfdrbXNN-46" style="edgeStyle=orthogonalEdgeStyle;rounded=0;orthogonalLoop=1;jettySize=auto;html=1;entryX=1;entryY=0.5;entryDx=0;entryDy=0;" edge="1" parent="1" source="YVvzEUrq8drLlfdrbXNN-40" target="YVvzEUrq8drLlfdrbXNN-7">
          <mxGeometry relative="1" as="geometry" />
        </mxCell>
        <mxCell id="YVvzEUrq8drLlfdrbXNN-40" value="用户账户管理&lt;br&gt;用户健康档案&lt;br&gt;姓名,性别,年龄&lt;br style=&quot;border-color: var(--border-color);&quot;&gt;电话&lt;br style=&quot;border-color: var(--border-color);&quot;&gt;关联治疗记录&lt;br&gt;头皮状态记录(时间,外观5张图,备注)&lt;br&gt;关联消费记录" style="rounded=0;whiteSpace=wrap;html=1;fillColor=#dae8fc;strokeColor=#6c8ebf;align=left;" vertex="1" parent="1">
          <mxGeometry x="649" y="283" width="155" height="117" as="geometry" />
        </mxCell>
        <mxCell id="YVvzEUrq8drLlfdrbXNN-50" style="edgeStyle=orthogonalEdgeStyle;rounded=0;orthogonalLoop=1;jettySize=auto;html=1;entryX=1;entryY=0.5;entryDx=0;entryDy=0;" edge="1" parent="1" source="YVvzEUrq8drLlfdrbXNN-41" target="YVvzEUrq8drLlfdrbXNN-7">
          <mxGeometry relative="1" as="geometry" />
        </mxCell>
        <mxCell id="YVvzEUrq8drLlfdrbXNN-41" value="用户消费记录&lt;br&gt;&lt;br&gt;购买产品名称,用户,价格,实付,状态(未付款,已付款)" style="rounded=0;whiteSpace=wrap;html=1;fillColor=#dae8fc;strokeColor=#6c8ebf;align=left;verticalAlign=top;" vertex="1" parent="1">
          <mxGeometry x="649" y="900" width="155" height="110" as="geometry" />
        </mxCell>
        <mxCell id="YVvzEUrq8drLlfdrbXNN-49" style="edgeStyle=orthogonalEdgeStyle;rounded=0;orthogonalLoop=1;jettySize=auto;html=1;entryX=1;entryY=0.5;entryDx=0;entryDy=0;" edge="1" parent="1" source="YVvzEUrq8drLlfdrbXNN-43" target="YVvzEUrq8drLlfdrbXNN-7">
          <mxGeometry relative="1" as="geometry" />
        </mxCell>
        <mxCell id="YVvzEUrq8drLlfdrbXNN-43" value="治疗记录&lt;br&gt;&lt;br&gt;时间,操作人,用户,状态(预约中,已完成)" style="rounded=0;whiteSpace=wrap;html=1;fillColor=#dae8fc;strokeColor=#6c8ebf;align=left;verticalAlign=top;" vertex="1" parent="1">
          <mxGeometry x="649" y="746" width="155" height="84" as="geometry" />
        </mxCell>
        <mxCell id="YVvzEUrq8drLlfdrbXNN-45" style="edgeStyle=orthogonalEdgeStyle;rounded=0;orthogonalLoop=1;jettySize=auto;html=1;entryX=1;entryY=0.5;entryDx=0;entryDy=0;" edge="1" parent="1" source="YVvzEUrq8drLlfdrbXNN-44" target="YVvzEUrq8drLlfdrbXNN-7">
          <mxGeometry relative="1" as="geometry" />
        </mxCell>
        <mxCell id="YVvzEUrq8drLlfdrbXNN-44" value="操作员账户管理&lt;br&gt;&lt;br&gt;姓名,性别,年龄&lt;br&gt;电话&lt;br&gt;所属机构(地址信息)&lt;br&gt;存续状态&lt;br&gt;关联治疗记录" style="rounded=0;whiteSpace=wrap;html=1;fillColor=#dae8fc;strokeColor=#6c8ebf;verticalAlign=top;align=left;" vertex="1" parent="1">
          <mxGeometry x="644" y="130" width="160" height="111" as="geometry" />
        </mxCell>
        <mxCell id="YVvzEUrq8drLlfdrbXNN-51" value="聚美业务流程及基础数据图" style="text;html=1;strokeColor=none;fillColor=none;align=center;verticalAlign=middle;whiteSpace=wrap;rounded=0;fontSize=18;" vertex="1" parent="1">
          <mxGeometry x="254" y="20" width="275" height="30" as="geometry" />
        </mxCell>
      </root>
    </mxGraphModel>
  </diagram>
</mxfile>
